<svg width="19" height="19" viewBox="0 0 19 19" fill="none" xmlns="http://www.w3.org/2000/svg">
<path d="M9.12057 0.50018V0.500151C8.86243 0.500151 8.60038 0.53865 8.34073 0.603634C8.19785 0.639891 8.05607 0.688471 7.90805 0.748366L9.12057 0.50018ZM9.12057 0.50018L9.12596 0.500121M9.12057 0.50018L9.12596 0.500121M9.12596 0.500121C9.28198 0.498439 9.43901 0.514289 9.61227 0.541523L9.12596 0.500121ZM7.2798 1.08481L7.27978 1.08478C7.24261 1.10874 7.20722 1.12513 7.17788 1.13641C7.16131 1.15028 7.13946 1.16809 7.11612 1.18532L7.11067 1.18935L7.11064 1.18931C7.05835 1.22684 7.01483 1.25686 6.97665 1.28319C6.90463 1.33286 6.8516 1.36943 6.79452 1.41861C6.76702 1.4437 6.73614 1.47665 6.69398 1.52463C6.68484 1.53503 6.67445 1.54699 6.66316 1.55999C6.62822 1.60022 6.58467 1.65035 6.54301 1.69474L6.53648 1.70169L6.53642 1.70163C6.2365 2.00916 5.98646 2.32425 5.78509 2.68681L5.78231 2.69182L5.78228 2.69181C5.41691 3.33223 5.14806 4.04689 5.03547 4.7745L4.95475 5.29613L4.53921 5.20857C4.52761 5.23995 4.51475 5.28754 4.50506 5.35805C4.47554 5.57291 4.50155 5.88436 4.61339 6.22777C4.74201 6.62274 4.94732 6.90168 5.11548 7.0368L5.24512 7.14096L5.28655 7.30201C5.60894 8.55536 6.28577 9.57584 7.13904 10.2034L7.34281 10.3532V10.6062V11.389V11.5961L7.19636 11.7425L6.4371 12.5018L6.37973 12.5591L6.30716 12.5954L4.78865 13.3547L4.78695 13.3555C4.12071 13.6855 3.45778 14.0152 2.79454 14.345C2.2405 14.6206 1.68623 14.8962 1.12963 15.1722C0.67487 15.4567 0.454046 16.036 0.507683 16.661L0.508502 16.6705L0.508411 16.6705C0.51769 16.81 0.512819 16.9544 0.50887 17.0715C0.508601 17.0795 0.508335 17.0873 0.508078 17.0951C0.503704 17.227 0.501337 17.3303 0.508785 17.4235C0.520939 17.5756 0.552877 17.6346 0.598843 17.6728C0.707398 17.7206 0.846539 17.7387 1.05484 17.7354C1.10745 17.7346 1.17373 17.7315 1.24792 17.728C1.42339 17.7198 1.64308 17.7096 1.83067 17.7222C2.77449 17.7218 3.71686 17.7219 4.65956 17.7221C5.13407 17.7222 5.60865 17.7223 6.08355 17.7223H6.08374C7.4344 17.7228 8.78259 17.7226 10.1317 17.7224C10.8066 17.7223 11.4818 17.7223 12.1576 17.7223C12.7574 17.7223 13.3563 17.7226 13.9549 17.7229C15.1439 17.7236 16.3316 17.7243 17.522 17.7223C17.5689 17.7171 17.5934 17.7035 17.6084 17.6925C17.6277 17.6782 17.653 17.6514 17.6777 17.6003C17.7314 17.4893 17.7557 17.3166 17.7351 17.142L17.7312 17.1091L17.7317 17.0759C17.7322 17.0428 17.7327 17.0101 17.7332 16.9778C17.7387 16.6459 17.7435 16.3537 17.6994 16.0798C17.6532 15.7932 17.559 15.5718 17.3832 15.3992L17.377 15.3931L17.3771 15.3931C17.2109 15.2242 16.998 15.0943 16.7298 14.9612C16.6512 14.9222 16.56 14.8795 16.4628 14.8341C16.269 14.7435 16.0515 14.6418 15.8626 14.5355C15.4713 14.3419 15.0787 14.1506 14.6847 13.9585L14.667 13.9499C14.2634 13.7532 13.8582 13.5556 13.4542 13.3555L13.4525 13.3547L11.934 12.5954L11.8614 12.5591L11.804 12.5018L11.0448 11.7425L10.8983 11.5961V11.389V10.6062V10.3532L11.1021 10.2034C11.9555 9.57586 12.6321 8.55539 12.955 7.30183L12.9964 7.14109L13.1257 7.03703C13.2939 6.90173 13.4992 6.62268 13.6272 6.22824L13.6274 6.22777C13.7392 5.8843 13.7653 5.57281 13.7358 5.35791C13.7262 5.28737 13.7133 5.23977 13.7017 5.20839L13.286 5.29522L13.2055 4.77441C13.0931 4.04691 12.8241 3.33223 12.4589 2.69166L12.4561 2.6867L12.4561 2.68669C12.255 2.32438 12.0047 2.00933 11.7047 1.70158L11.6986 1.69537L11.6987 1.69532C11.6561 1.65006 11.6119 1.59929 11.5767 1.5587C11.5658 1.5462 11.5558 1.53466 11.5469 1.52455C11.5314 1.50689 11.5174 1.49128 11.5046 1.47735C11.4767 1.46118 11.4485 1.44131 11.4215 1.41714C11.1665 1.18952 10.8773 1.00882 10.561 0.852122C10.4792 0.812112 10.4059 0.778102 10.3325 0.748117C10.2773 0.725772 10.2239 0.705822 10.1669 0.686069L10.1669 0.686063C9.99204 0.625383 9.84024 0.576678 9.69545 0.548258C9.67399 0.548111 9.6453 0.546717 9.61236 0.541538L7.2798 1.08481ZM7.2798 1.08481L7.28474 1.08155M7.2798 1.08481L7.28474 1.08155M7.28474 1.08155C7.41502 0.995389 7.5478 0.917836 7.68086 0.851933M7.28474 1.08155L7.68086 0.851933M7.68086 0.851933C7.71739 0.83393 7.746 0.815197 7.76483 0.802006C7.76662 0.800756 7.76838 0.799506 7.77012 0.798265L7.68021 0.852252C7.68043 0.852146 7.68064 0.85204 7.68086 0.851933ZM9.65317 0.540512L9.65334 0.540541L9.65317 0.540512ZM13.6743 5.15519C13.6731 5.15417 13.6726 5.15356 13.6726 5.15351C13.6726 5.15346 13.6732 5.15397 13.6743 5.15519ZM4.56842 5.1536C4.56845 5.15365 4.56793 5.15425 4.56674 5.15526C4.5678 5.15405 4.56839 5.15355 4.56842 5.1536ZM7.74188 0.809332L7.74315 0.808739L7.74188 0.809332Z" stroke="black"/>
<path d="M0.00951385 17.463C0.0295726 17.6908 0.105567 17.9185 0.341688 18.0704C0.790331 18.2982 1.32561 18.1464 1.81274 18.2223H6.08355H12.1576H17.5437C17.9811 18.1464 18.183 17.8427 18.2316 17.463H0.00951385Z" fill="#1E904E"/>
</svg>
